# xmcd
#
# Track frame offsets:
#	150
#	11880
#	25720
#	37745
#	50740
#	66092
#	80615
#	93860
#	111172
#	122655
#	136030
#	147692
#	163872
#	176772
#	191302
#	201987
#	217575
#	230347
#
# Disc length: 3253 seconds
#
# Revision: 3
# Processed by: cddbd v1.5.2PL0 Copyright (c) Steve Scherf et al.
# Submitted via: dBpowerAMP V4.0
#
DISCID=f40cb312
DTITLE=Various Artist - Country Songs That Will Live Forever disc 3
DYEAR=1993
DGENRE=Country
TTITLE0=Hank Williams Jr, The Mike Curb Congregation - North to Alaska
TTITLE1=Eddy Arnold - The End of The World
TTITLE2=Kenny Rogers, The First Edition - Me And Bobby Mcgee
TTITLE3=Webb Pierce - Detroit City
TTITLE4=Jimmy Dean - All I Have to Offer You is Me
TTITLE5=Dottie West - Harper Valley PTA
TTITLE6=Hank Locklin, Danny Davis, The Nashville Brass - Please Help me I'm Falling
TTITLE7=Elvis Presley, JD Sumner,The Stamps, Kathy Westmoreland, Myrne Smith - She Thinks I Still Care
TTITLE8=Floyd Cramer - King of the Road
TTITLE9=Ronnie Milsap, The Jordanaires - Behind Closed Doors
TTITLE10=Crystal Gayle - Never Ending Song of Love
TTITLE11=Tompall, The Glaser Brothers - Help Me Make it Through the Night
TTITLE12=Danny Davis, The Nashville Brass, The Nashville Sounds - (Hey Won't You Play) Another Somebody Done Somebody Wrong Song
TTITLE13=Reba McEntire - Empty Arms
TTITLE14=Jim Ed Brown - Before the Next Teardrop Falls
TTITLE15=Billy Walker - For the Good Times
TTITLE16=Charley Pride, The Nashville Edition - Rhinestone Cowboy
TTITLE17=Conway Twitty - Blue Eyes Crying in the Rain
EXTD=corrections and additions
EXTT0=
EXTT1=
EXTT2=
EXTT3=
EXTT4=
EXTT5=
EXTT6=
EXTT7=
EXTT8=
EXTT9=
EXTT10=
EXTT11=
EXTT12=
EXTT13=
EXTT14=
EXTT15=
EXTT16=
EXTT17=
PLAYORDER=
